%TF.GenerationSoftware,KiCad,Pcbnew,7.0.7*%
%TF.CreationDate,2024-08-27T12:46:14+05:30*%
%TF.ProjectId,Power supply module,506f7765-7220-4737-9570-706c79206d6f,rev?*%
%TF.SameCoordinates,Original*%
%TF.FileFunction,Copper,L1,Top*%
%TF.FilePolarity,Positive*%
%FSLAX46Y46*%
G04 Gerber Fmt 4.6, Leading zero omitted, Abs format (unit mm)*
G04 Created by KiCad (PCBNEW 7.0.7) date 2024-08-27 12:46:14*
%MOMM*%
%LPD*%
G01*
G04 APERTURE LIST*
%TA.AperFunction,ConnectorPad*%
%ADD10C,5.400000*%
%TD*%
%TA.AperFunction,ComponentPad*%
%ADD11C,3.100000*%
%TD*%
%TA.AperFunction,ComponentPad*%
%ADD12R,1.905000X2.000000*%
%TD*%
%TA.AperFunction,ComponentPad*%
%ADD13O,1.905000X2.000000*%
%TD*%
%TA.AperFunction,ComponentPad*%
%ADD14O,1.400000X1.400000*%
%TD*%
%TA.AperFunction,ComponentPad*%
%ADD15C,1.400000*%
%TD*%
%TA.AperFunction,ComponentPad*%
%ADD16R,3.000000X3.000000*%
%TD*%
%TA.AperFunction,ComponentPad*%
%ADD17C,3.000000*%
%TD*%
%TA.AperFunction,ComponentPad*%
%ADD18R,1.800000X1.800000*%
%TD*%
%TA.AperFunction,ComponentPad*%
%ADD19C,1.800000*%
%TD*%
%TA.AperFunction,ComponentPad*%
%ADD20R,2.200000X2.200000*%
%TD*%
%TA.AperFunction,ComponentPad*%
%ADD21O,2.200000X2.200000*%
%TD*%
%TA.AperFunction,ComponentPad*%
%ADD22R,1.600000X1.600000*%
%TD*%
%TA.AperFunction,ComponentPad*%
%ADD23C,1.600000*%
%TD*%
%TA.AperFunction,Conductor*%
%ADD24C,0.250000*%
%TD*%
G04 APERTURE END LIST*
D10*
%TO.P,H4,1*%
%TO.N,N/C*%
X111760000Y-83820000D03*
D11*
X111760000Y-83820000D03*
%TD*%
D10*
%TO.P,H3,1*%
%TO.N,N/C*%
X111760000Y-99060000D03*
D11*
X111760000Y-99060000D03*
%TD*%
%TO.P,H2,1*%
%TO.N,N/C*%
X157480000Y-83820000D03*
D10*
X157480000Y-83820000D03*
%TD*%
D11*
%TO.P,H1,1*%
%TO.N,N/C*%
X157480000Y-99060000D03*
D10*
X157480000Y-99060000D03*
%TD*%
D12*
%TO.P,U1,1,VI*%
%TO.N,Net-(D3-K)*%
X132080000Y-101600000D03*
D13*
%TO.P,U1,2,GND*%
%TO.N,Net-(D1-A)*%
X134620000Y-101600000D03*
%TO.P,U1,3,VO*%
%TO.N,Net-(J2-Pin_1)*%
X137160000Y-101600000D03*
%TD*%
D14*
%TO.P,R1,2*%
%TO.N,Net-(D5-A)*%
X144780000Y-95250000D03*
D15*
%TO.P,R1,1*%
%TO.N,Net-(J2-Pin_1)*%
X144780000Y-102870000D03*
%TD*%
D16*
%TO.P,J2,1,Pin_1*%
%TO.N,Net-(J2-Pin_1)*%
X149860000Y-83820000D03*
D17*
%TO.P,J2,2,Pin_2*%
%TO.N,Net-(D1-A)*%
X149860000Y-88900000D03*
%TD*%
D16*
%TO.P,J1,1,Pin_1*%
%TO.N,Net-(D2-K)*%
X119380000Y-93980000D03*
D17*
%TO.P,J1,2,Pin_2*%
%TO.N,Net-(D1-K)*%
X119380000Y-88900000D03*
%TD*%
D18*
%TO.P,D5,1,K*%
%TO.N,Net-(D1-A)*%
X149860000Y-99060000D03*
D19*
%TO.P,D5,2,A*%
%TO.N,Net-(D5-A)*%
X152400000Y-99060000D03*
%TD*%
D20*
%TO.P,D4,1,K*%
%TO.N,Net-(D3-K)*%
X127000000Y-86360000D03*
D21*
%TO.P,D4,2,A*%
%TO.N,Net-(D2-K)*%
X127000000Y-96520000D03*
%TD*%
D20*
%TO.P,D3,1,K*%
%TO.N,Net-(D3-K)*%
X127000000Y-81280000D03*
D21*
%TO.P,D3,2,A*%
%TO.N,Net-(D1-K)*%
X116840000Y-81280000D03*
%TD*%
D20*
%TO.P,D2,1,K*%
%TO.N,Net-(D2-K)*%
X132080000Y-81280000D03*
D21*
%TO.P,D2,2,A*%
%TO.N,Net-(D1-A)*%
X132080000Y-91440000D03*
%TD*%
D20*
%TO.P,D1,1,K*%
%TO.N,Net-(D1-K)*%
X116840000Y-101600000D03*
D21*
%TO.P,D1,2,A*%
%TO.N,Net-(D1-A)*%
X127000000Y-101600000D03*
%TD*%
D22*
%TO.P,C2,1*%
%TO.N,Net-(J2-Pin_1)*%
X139700000Y-93980000D03*
D23*
%TO.P,C2,2*%
%TO.N,Net-(D1-A)*%
X139700000Y-91480000D03*
%TD*%
%TO.P,C1,2*%
%TO.N,Net-(D1-A)*%
X142240000Y-83820000D03*
D22*
%TO.P,C1,1*%
%TO.N,Net-(D3-K)*%
X138740000Y-83820000D03*
%TD*%
D24*
%TO.N,Net-(D1-A)*%
X133295000Y-102925000D02*
X134620000Y-101600000D01*
X127000000Y-101600000D02*
X128325000Y-102925000D01*
X128325000Y-102925000D02*
X133295000Y-102925000D01*
%TO.N,Net-(D2-K)*%
X125575000Y-79855000D02*
X124460000Y-80970000D01*
X130655000Y-79855000D02*
X125575000Y-79855000D01*
X132080000Y-81280000D02*
X130655000Y-79855000D01*
X124460000Y-81280000D02*
X124460000Y-91440000D01*
X124460000Y-80970000D02*
X124460000Y-81280000D01*
%TO.N,Net-(D1-A)*%
X152400000Y-81280000D02*
X144780000Y-81280000D01*
X152400000Y-86360000D02*
X152400000Y-81280000D01*
X149860000Y-88900000D02*
X152400000Y-86360000D01*
X144780000Y-81280000D02*
X142240000Y-83820000D01*
%TO.N,Net-(D3-K)*%
X129540000Y-99060000D02*
X129540000Y-86360000D01*
X129540000Y-86360000D02*
X134620000Y-86360000D01*
X132080000Y-101600000D02*
X129540000Y-99060000D01*
X127000000Y-86360000D02*
X129540000Y-86360000D01*
%TO.N,Net-(D1-A)*%
X132080000Y-99060000D02*
X134620000Y-101600000D01*
X132080000Y-91440000D02*
X132080000Y-99060000D01*
%TO.N,Net-(J2-Pin_1)*%
X137160000Y-101600000D02*
X143510000Y-101600000D01*
X143510000Y-101600000D02*
X144780000Y-102870000D01*
X139700000Y-99060000D02*
X137160000Y-101600000D01*
X139700000Y-93980000D02*
X139700000Y-99060000D01*
%TO.N,Net-(D5-A)*%
X149860000Y-101600000D02*
X152400000Y-99060000D01*
X147320000Y-101600000D02*
X149860000Y-101600000D01*
X145805000Y-100085000D02*
X147320000Y-101600000D01*
X145805000Y-96275000D02*
X145805000Y-100085000D01*
X144780000Y-95250000D02*
X145805000Y-96275000D01*
%TO.N,Net-(D1-A)*%
X149860000Y-99060000D02*
X149860000Y-88900000D01*
%TO.N,Net-(J2-Pin_1)*%
X142240000Y-93980000D02*
X139700000Y-93980000D01*
X144780000Y-91440000D02*
X142240000Y-93980000D01*
X144780000Y-88900000D02*
X144780000Y-91440000D01*
X149860000Y-83820000D02*
X144780000Y-88900000D01*
%TO.N,Net-(D1-A)*%
X142240000Y-88940000D02*
X139700000Y-91480000D01*
X142240000Y-83820000D02*
X142240000Y-88940000D01*
X139660000Y-91440000D02*
X139700000Y-91480000D01*
X132080000Y-91440000D02*
X139660000Y-91440000D01*
%TO.N,Net-(D3-K)*%
X137160000Y-83820000D02*
X138740000Y-83820000D01*
X134620000Y-86360000D02*
X137160000Y-83820000D01*
%TO.N,Net-(D2-K)*%
X121920000Y-93980000D02*
X119380000Y-93980000D01*
X124460000Y-91440000D02*
X121920000Y-93980000D01*
%TO.N,Net-(D3-K)*%
X127000000Y-81280000D02*
X127000000Y-86360000D01*
%TO.N,Net-(D2-K)*%
X119380000Y-99060000D02*
X124460000Y-99060000D01*
X124460000Y-99060000D02*
X127000000Y-96520000D01*
X119380000Y-93980000D02*
X119380000Y-99060000D01*
%TO.N,Net-(D1-K)*%
X116840000Y-91440000D02*
X116840000Y-101600000D01*
X119380000Y-88900000D02*
X116840000Y-91440000D01*
X116840000Y-86360000D02*
X119380000Y-88900000D01*
X116840000Y-81280000D02*
X116840000Y-86360000D01*
%TD*%
M02*
